<svg width="23" height="22" viewBox="0 0 23 22" fill="none" xmlns="http://www.w3.org/2000/svg">
<path d="M10.561 1.31391C10.7676 0.895364 11.3644 0.895364 11.571 1.31391L14.245 6.73203C14.327 6.89824 14.4856 7.01344 14.669 7.04009L20.6482 7.90893C21.1101 7.97604 21.2946 8.54367 20.9603 8.86946L16.6337 13.0869C16.501 13.2163 16.4404 13.4027 16.4717 13.5853L17.4931 19.5404C17.572 20.0004 17.0892 20.3513 16.676 20.1341L11.328 17.3224C11.164 17.2362 10.968 17.2362 10.8039 17.3224L5.45593 20.1341C5.0428 20.3513 4.55996 20.0004 4.63886 19.5404L5.66024 13.5853C5.69157 13.4027 5.631 13.2163 5.49828 13.0869L1.17165 8.86946C0.837423 8.54367 1.02185 7.97604 1.48375 7.90893L7.463 7.04009C7.64642 7.01344 7.80498 6.89824 7.88701 6.73203L10.561 1.31391Z" stroke="#44DD8A" stroke-width="2" stroke-linejoin="round"/>
</svg>
